<?xml version="1.0" encoding="UTF-8"?>
<svg width="214.06" height="195.24" viewBox="0 0 214.06 195.24" xmlns="http://www.w3.org/2000/svg">
    <title>Revit Logo Monochrome</title>
    <g fill="currentColor">
        <!-- Main R shape -->
        <path d="M34.75,19.24c10.72-6.35,21.31-12.94,32.07-19.2.1,53.21,0,106.42,0,159.64-5.26,3.2-10.56,6.33-15.81,9.55-6.34,3.76-12.6,7.68-19,11.36V21.31A9.68,9.68,0,0,1,34.75,19.24Z"/>
        <!-- Top bar -->
        <path d="M66.82,0q75.89-.07,151.79,0c6-.3,11.75,5,11.72,11,0,8.27,0,16.55,0,24.82q0,61.89,0,123.79-81.72,0-163.45,0C66.82,106.42,66.92,53.21,66.82,0Z"/>
        <!-- Bottom section -->
        <path d="M198.26,35.88H214q0,79.68,0,159.36H29.69a12.27,12.27,0,0,1-9-5.48,11.09,11.09,0,0,1-1.73-6.66c0-4.62,0-9.25,0-13.87,5.25-3.21,10.55-6.35,15.81-9.55q81.73,0,163.45,0Q198.3,97.78,198.26,35.88Z"/>
    </g>
</svg> 